<svg width="1440" height="419" viewBox="0 0 1440 419" fill="none" xmlns="http://www.w3.org/2000/svg">
<g clip-path="url(#clip0_4127_16096)">
<path d="M387.471 33.1987C387.471 15.0475 402.185 0.333008 420.336 0.333008H1020.13C1038.29 0.333008 1053 15.0475 1053 33.1987V386.504C1053 404.656 1038.29 419.37 1020.13 419.37H420.336C402.185 419.37 387.471 404.656 387.471 386.504V33.1987Z" fill="url(#paint0_linear_4127_16096)"/>
<path d="M420.336 0.949776H1020.13C1037.95 0.949776 1052.38 15.3881 1052.38 33.1987V386.504C1052.38 404.315 1037.95 418.753 1020.13 418.753H420.336C402.526 418.753 388.087 404.315 388.087 386.504V33.1987C388.087 15.3881 402.526 0.949776 420.336 0.949776Z" stroke="white" stroke-opacity="0.2" stroke-width="1.23354"/>
<g filter="url(#filter0_i_4127_16096)">
<path d="M546.778 144.404L478.52 144.404C472.343 144.404 467.336 149.328 467.336 155.402L467.336 201.473C467.336 207.547 472.343 212.471 478.52 212.471L546.778 212.471C552.955 212.471 557.962 207.547 557.962 201.473L557.962 155.402C557.962 149.328 552.954 144.404 546.778 144.404Z" stroke="#231F20" stroke-width="0.771322" stroke-miterlimit="10" stroke-linecap="square"/>
<path d="M546.778 144.404L478.52 144.404C472.343 144.404 467.336 149.328 467.336 155.402L467.336 201.473C467.336 207.547 472.343 212.471 478.52 212.471L546.778 212.471C552.955 212.471 557.962 207.547 557.962 201.473L557.962 155.402C557.962 149.328 552.954 144.404 546.778 144.404Z" fill="url(#paint1_linear_4127_16096)"/>
<path d="M528.101 166.456L557.962 166.456L557.962 164.794L528.101 164.794C525.706 164.794 523.762 166.706 523.762 169.06L523.762 188.148L501.254 188.148L501.254 166.733L510.325 166.733C512.071 166.733 513.48 165.348 513.48 163.631L513.48 156.788L528.157 144.377L525.565 144.377L512.635 155.292L499.704 144.377L497.113 144.377L511.79 156.788L511.79 163.631C511.79 164.434 511.142 165.071 510.325 165.071L467.336 165.071L467.336 166.733L499.563 166.733L499.563 188.148L467.336 188.148L467.336 189.81L511.818 189.81L511.818 198.564L495.366 212.443L497.958 212.443L512.663 200.032L527.368 212.443L529.96 212.443L513.508 198.564L513.508 189.81L557.962 189.81L557.962 188.148L525.452 188.148L525.452 169.06C525.452 167.62 526.636 166.456 528.101 166.456V166.456Z" fill="#58595B"/>
</g>
<g clip-path="url(#clip1_4127_16096)">
<path d="M970.177 310.674L933.137 310.674L933.137 377.406L970.177 377.406L970.177 310.674Z" fill="#F26522"/>
<path d="M935.505 344.052C935.505 330.511 941.84 318.452 951.663 310.672C944.47 304.992 935.398 301.6 925.521 301.6C902.143 301.6 883.193 320.605 883.193 344.052C883.193 367.498 902.143 386.503 925.521 386.503C935.398 386.503 944.47 383.111 951.663 377.432C941.813 369.652 935.505 357.592 935.505 344.052V344.052Z" fill="#E52423"/>
<path d="M1020.12 344.052C1020.12 367.498 1001.17 386.503 977.796 386.503C967.919 386.503 958.847 383.111 951.653 377.432C961.504 369.652 967.811 357.592 967.811 344.052C967.811 330.511 961.504 318.452 951.653 310.672C958.847 304.992 967.945 301.6 977.796 301.6C1001.17 301.6 1020.12 320.605 1020.12 344.052V344.052Z" fill="#F99F1C"/>
<path d="M1016.11 370.351L1016.11 368.978L1016.65 368.978L1016.65 368.708L1015.25 368.708L1015.25 368.978L1015.79 368.978L1015.79 370.351L1016.09 370.351L1016.11 370.351ZM1018.82 370.351L1018.82 368.708L1018.39 368.708L1017.91 369.839L1017.43 368.708L1017 368.708L1017 370.351L1017.29 370.351L1017.29 369.112L1017.75 370.189L1018.07 370.189L1018.53 369.112L1018.53 370.351L1018.82 370.351V370.351Z" fill="#F99F1C"/>
</g>
<path d="M428.999 51.2772C423.97 51.2772 421.044 47.7877 421.044 43.3228C421.044 38.5761 424.339 35.2382 428.977 35.2382C431.015 35.2382 432.64 35.8885 433.594 36.6037V38.9012C432.575 38.0559 431.145 37.2539 429.064 37.2539C425.488 37.2539 423.234 39.7898 423.234 43.2144C423.234 46.6389 425.466 49.2398 429.086 49.2398C430.993 49.2398 432.597 48.5029 433.637 47.6576V49.8467C432.423 50.7787 430.733 51.2772 428.999 51.2772ZM440.46 39.8115C441.002 39.8115 441.457 39.9632 441.89 40.3317V42.239C441.37 41.8706 440.807 41.7189 440.156 41.7189C438.856 41.7189 437.881 42.9326 437.859 45.035V50.8438H435.865V40.0066H437.859V42.1523C438.358 40.6351 439.311 39.8115 440.46 39.8115ZM446.902 39.6815C449.741 39.6815 451.497 41.3721 451.497 44.2548V50.8438H449.524V49.3916C448.983 50.497 447.899 51.1689 446.447 51.1689C444.258 51.1689 442.675 49.63 442.675 47.5926C442.675 45.5119 444.279 44.0597 446.62 44.0597C448.007 44.0597 449.004 44.6449 449.524 45.4252V44.4715C449.524 42.5642 448.376 41.4804 446.62 41.4804C445.32 41.4804 444.171 42.0006 443.26 42.9543V40.9169C444.171 40.2233 445.341 39.6815 446.902 39.6815ZM447.097 49.565C448.592 49.565 449.524 48.6763 449.524 47.4842C449.524 46.3572 448.614 45.5335 447.119 45.5335C445.58 45.5335 444.713 46.3138 444.713 47.5276C444.713 48.763 445.558 49.565 447.097 49.565ZM456.819 38.5544V40.0066H460.135V41.6972H456.819V50.8438H454.825V41.6972H452.939V40.0066H454.825V38.7495C454.825 36.3436 456.104 35.0215 458.293 35.0215C459.16 35.0215 459.94 35.2382 460.417 35.585V37.2973C459.918 36.9505 459.246 36.7771 458.51 36.7771C457.339 36.7771 456.819 37.4057 456.819 38.5544ZM464.974 40.0066H467.921V41.6972H464.974V50.8438H462.98V41.6972H460.335V40.0066H462.98V37.2973L464.974 36.6471V40.0066ZM474.559 35.6717H479.999C482.904 35.6717 484.768 37.5791 484.768 40.4617C484.768 43.3661 482.86 45.3385 479.479 45.3385H476.662V50.8438H474.559V35.6717ZM476.662 43.5178H479.263C481.495 43.5178 482.579 42.3908 482.579 40.4617C482.579 38.6411 481.495 37.5791 479.566 37.5791H476.662V43.5178ZM487.75 38.0125C487.013 38.0125 486.428 37.4273 486.428 36.7121C486.428 35.9968 487.013 35.455 487.75 35.455C488.487 35.455 489.05 35.9968 489.05 36.7121C489.05 37.4273 488.487 38.0125 487.75 38.0125ZM488.747 50.8438H486.753V40.0066H488.747V50.8438ZM496.657 45.1867L500.515 50.8438H498.153L495.422 46.5522L492.647 50.8438H490.328L494.208 45.1867L490.567 40.0066H492.907L495.422 43.9513L498.001 40.0066H500.277L496.657 45.1867ZM510.844 44.3415V45.772H502.998C503.171 48.0694 504.623 49.3265 506.942 49.3265C508.243 49.3265 509.608 48.8497 510.454 48.1345V50.0418C509.63 50.692 508.221 51.1689 506.704 51.1689C503.214 51.1689 500.895 48.9147 500.895 45.3601C500.895 42.0873 502.803 39.6815 506.205 39.6815C508.98 39.6815 510.844 41.3721 510.844 44.3415ZM506.14 41.4804C504.298 41.4804 503.323 42.6075 503.041 44.2981H508.915C508.893 42.4558 507.788 41.4804 506.14 41.4804ZM515.111 50.8438H513.117V35.2382H515.111V50.8438ZM525.834 35.6717V48.8497H532.748V50.8438H523.731V35.6717H525.834ZM536.872 35.6717V48.8497H543.786V50.8438H534.77V35.6717H536.872ZM552.002 51.2772C546.974 51.2772 544.048 47.7877 544.048 43.3228C544.048 38.5761 547.342 35.2382 551.981 35.2382C554.018 35.2382 555.644 35.8885 556.597 36.6037V38.9012C555.579 38.0559 554.148 37.2539 552.067 37.2539C548.491 37.2539 546.237 39.7898 546.237 43.2144C546.237 46.6389 548.47 49.2398 552.089 49.2398C553.996 49.2398 555.6 48.5029 556.641 47.6576V49.8467C555.427 50.7787 553.736 51.2772 552.002 51.2772Z" fill="white"/>
<path d="M930.664 72.2861V100.039H957.326V44.9434C950.256 44.9434 943.474 47.8239 938.473 52.9509C933.473 58.0782 930.664 65.032 930.664 72.283" fill="#5056E6"/>
<path d="M957.323 17.875V45.2175C960.826 45.2153 964.294 45.9209 967.531 47.294C970.768 48.6673 973.709 50.681 976.186 53.2204C978.662 55.7599 980.625 58.7751 981.965 62.0937C983.305 65.412 983.994 68.9687 983.992 72.5603V100.038H1010.66V72.5603C1010.66 65.3785 1009.28 58.2669 1006.6 51.6317C1003.92 44.9966 999.99 38.9679 995.037 33.8899C990.086 28.8117 984.206 24.7838 977.735 22.0358C971.264 19.2881 964.328 17.8741 957.323 17.875Z" fill="#5056E6"/>
</g>
<defs>
<filter id="filter0_i_4127_16096" x="466.951" y="144.019" width="94.4818" height="72.9514" filterUnits="userSpaceOnUse" color-interpolation-filters="sRGB">
<feFlood flood-opacity="0" result="BackgroundImageFix"/>
<feBlend mode="normal" in="SourceGraphic" in2="BackgroundImageFix" result="shape"/>
<feColorMatrix in="SourceAlpha" type="matrix" values="0 0 0 0 0 0 0 0 0 0 0 0 0 0 0 0 0 0 127 0" result="hardAlpha"/>
<feOffset dx="3.08529" dy="4.11372"/>
<feGaussianBlur stdDeviation="9.25586"/>
<feComposite in2="hardAlpha" operator="arithmetic" k2="-1" k3="1"/>
<feColorMatrix type="matrix" values="0 0 0 0 0 0 0 0 0 0 0 0 0 0 0 0 0 0 0.15 0"/>
<feBlend mode="normal" in2="shape" result="effect1_innerShadow_4127_16096"/>
</filter>
<linearGradient id="paint0_linear_4127_16096" x1="387.471" y1="322.055" x2="1053" y2="98.752" gradientUnits="userSpaceOnUse">
<stop stop-color="#262975"/>
<stop offset="1" stop-color="#3D44E3"/>
</linearGradient>
<linearGradient id="paint1_linear_4127_16096" x1="472.491" y1="211.556" x2="551.664" y2="144.013" gradientUnits="userSpaceOnUse">
<stop offset="0.03" stop-color="#939598"/>
<stop offset="0.23" stop-color="#A1A3A6"/>
<stop offset="0.29" stop-color="#A7A9AC"/>
<stop offset="0.49" stop-color="#989A9D"/>
<stop offset="0.55" stop-color="#939598"/>
<stop offset="0.95" stop-color="#BCBEC0"/>
</linearGradient>
<clipPath id="clip0_4127_16096">
<rect width="1440" height="419" fill="white"/>
</clipPath>
<clipPath id="clip1_4127_16096">
<rect width="136.94" height="84.903" fill="white" transform="translate(883.193 301.6)"/>
</clipPath>
</defs>
</svg>
